<?xml version="1.0" standalone="no"?>
<!DOCTYPE svg PUBLIC "-//W3C//DTD SVG 20010904//EN"
 "http://www.w3.org/TR/2001/REC-SVG-20010904/DTD/svg10.dtd">
<svg version="1.0" xmlns="http://www.w3.org/2000/svg"
 width="700.000000pt" height="700.000000pt" viewBox="0 0 700.000000 700.000000"
 preserveAspectRatio="xMidYMid meet">
<metadata>
Created by potrace 1.14, written by Peter Selinger 2001-2017
</metadata>
<g transform="translate(0.000000,700.000000) scale(0.100000,-0.100000)"
fill="#000000" stroke="none">
<path d="M3279 6996 c-2 -2 -48 -7 -102 -10 -53 -4 -103 -9 -110 -11 -6 -2
-35 -6 -64 -9 -145 -16 -399 -75 -593 -138 -140 -46 -407 -153 -431 -174 -8
-8 -20 -14 -26 -14 -12 0 -159 -79 -268 -145 -592 -356 -1104 -935 -1375
-1555 -23 -52 -46 -104 -51 -115 -47 -102 -149 -428 -175 -560 -2 -11 -10 -54
-19 -95 -29 -147 -35 -193 -52 -370 -15 -163 -8 -592 12 -711 2 -13 6 -46 9
-74 47 -409 239 -952 466 -1318 30 -48 60 -95 65 -105 24 -42 133 -191 208
-285 163 -202 344 -382 557 -552 92 -74 370 -265 386 -265 4 0 15 -6 23 -14 9
-7 81 -47 161 -88 357 -182 733 -302 1109 -354 25 -3 57 -8 71 -10 163 -25
682 -25 842 1 13 2 46 7 73 10 71 10 87 13 115 18 14 3 43 8 65 12 22 4 83 18
135 30 620 148 1184 461 1635 909 150 150 182 185 287 316 183 230 371 545
472 790 15 36 33 79 41 95 16 36 104 296 109 322 2 10 14 56 26 103 23 90 27
107 35 155 3 17 8 37 10 45 2 8 6 31 9 50 3 19 8 46 10 60 2 14 7 47 11 73 4
27 8 56 10 66 24 128 25 661 0 813 -2 13 -6 46 -10 73 -3 28 -8 59 -10 70 -3
11 -7 36 -9 55 -15 105 -73 337 -124 495 -45 138 -98 267 -168 413 -35 72 -64
134 -64 137 0 2 -16 29 -35 59 -19 30 -35 59 -35 64 0 5 -13 26 -30 48 -16 21
-30 42 -30 46 0 10 -101 158 -173 253 -165 220 -388 451 -590 613 -40 31 -74
59 -77 62 -8 9 -71 54 -155 112 -246 169 -555 324 -839 420 -65 22 -124 41
-130 43 -6 1 -18 4 -26 7 -70 25 -255 67 -380 87 -36 6 -76 13 -90 15 -14 3
-50 8 -80 11 -30 3 -68 8 -85 10 -38 6 -541 16 -546 11z m-418 -1266 c272
-204 501 -376 509 -383 9 -6 41 -31 72 -55 l57 -42 562 421 c308 231 567 423
574 426 13 4 180 -75 285 -135 91 -53 292 -193 377 -263 49 -40 142 -125 207
-190 l119 -118 -40 -123 c-23 -68 -70 -208 -106 -313 -97 -281 -308 -899 -310
-907 -2 -6 105 -83 682 -488 530 -373 485 -334 470 -410 -4 -19 -10 -53 -13
-75 -2 -22 -10 -65 -16 -95 -6 -30 -13 -66 -16 -80 -8 -44 -76 -283 -96 -340
-21 -59 -27 -75 -52 -132 -9 -20 -16 -42 -17 -50 0 -7 -35 -80 -77 -163 l-78
-150 -139 1 c-127 2 -941 13 -1178 17 -54 1 -102 0 -106 -3 -4 -3 -12 -23 -18
-45 -6 -22 -32 -107 -58 -190 -40 -130 -79 -257 -88 -290 -3 -10 -36 -115 -97
-310 -15 -49 -42 -137 -59 -195 -18 -58 -36 -116 -41 -130 -5 -14 -21 -64 -35
-112 -14 -49 -32 -88 -38 -89 -7 0 -19 -2 -27 -4 -47 -10 -204 -35 -255 -40
-33 -3 -78 -8 -100 -11 -56 -8 -313 -7 -419 0 -94 7 -107 9 -251 31 -128 21
-137 23 -151 37 -9 11 -124 366 -139 432 -3 11 -15 54 -29 95 -13 42 -31 101
-40 131 -162 531 -199 649 -209 670 -11 22 -18 24 -72 23 -33 -1 -274 -5 -535
-8 -261 -4 -551 -8 -643 -9 -136 -3 -171 0 -183 11 -23 23 -169 329 -209 436
-35 96 -100 311 -110 364 -2 15 -9 51 -16 81 -16 77 -36 221 -35 246 1 14 32
42 106 94 58 40 114 80 125 88 22 15 326 229 362 254 280 194 571 405 567 411
-2 4 -63 180 -135 391 -72 211 -173 508 -225 660 -71 207 -92 282 -85 295 14
28 243 245 334 318 82 66 310 225 322 225 4 0 19 9 34 19 36 26 263 141 277
141 7 0 234 -167 505 -370z"/>
<path d="M2985 4279 c-275 -197 -514 -370 -531 -383 l-32 -25 50 -148 c28 -81
120 -355 205 -608 85 -253 158 -466 163 -475 8 -13 86 -15 664 -15 l655 0 20
55 c10 30 44 132 74 225 197 612 262 810 286 882 l28 82 -21 19 c-12 10 -52
41 -91 69 -92 66 -622 449 -802 580 -78 57 -148 103 -155 102 -7 0 -238 -162
-513 -360z"/>
</g>
</svg>
