<?xml version="1.0" standalone="no"?>
<!DOCTYPE svg PUBLIC "-//W3C//DTD SVG 20010904//EN"
 "http://www.w3.org/TR/2001/REC-SVG-20010904/DTD/svg10.dtd">
<svg version="1.0" xmlns="http://www.w3.org/2000/svg"
 width="267.000000pt" height="267.000000pt" viewBox="0 0 267.000000 267.000000"
 preserveAspectRatio="xMidYMid meet">
<metadata>
Created by potrace 1.14, written by Peter Selinger 2001-2017
</metadata>
<g transform="translate(0.000000,267.000000) scale(0.100000,-0.100000)"
fill="#000000" stroke="none">
<path d="M1135 2655 c-38 -7 -84 -16 -101 -19 -67 -13 -215 -66 -290 -105
-115 -60 -138 -74 -212 -129 -278 -208 -471 -536 -519 -880 -13 -92 -7 -339
10 -427 17 -87 45 -194 55 -210 4 -5 7 -16 8 -24 8 -49 152 -301 214 -371 97
-111 197 -201 295 -267 62 -42 194 -110 255 -132 19 -7 44 -17 55 -22 82 -35
284 -66 431 -67 97 0 144 5 290 32 52 9 166 46 222 72 29 13 55 24 57 24 5 0
176 100 190 112 5 4 28 22 50 39 54 41 162 146 205 199 155 189 239 374 296
645 8 39 14 357 6 369 -3 5 -6 21 -8 35 -26 240 -162 522 -349 723 -182 196
-435 336 -710 394 -103 21 -355 26 -450 9z"/>
</g>
</svg>
