<?xml version="1.0" encoding="UTF-8"?>
<svg width="7200px" height="7200px" viewBox="0 0 7200 7200" xmlns="http://www.w3.org/2000/svg" xmlns:xlink="http://www.w3.org/1999/xlink" version="1.1">
 <!-- Generated by Pixelmator Pro 2.1.3 -->
 <path id="&lt;Merge&gt;-&lt;dup&gt;-&lt;dup&gt;" d="M4472.32 2477.16 C4482.83 2495.01 4493.4 2512.82 4503.9 2530.68 M3735.17 1981.87 C3825.69 1988.92 3918.32 1995.05 4007.46 2002.62 3947.09 2070.66 3885.58 2138.49 3825.9 2206.71 3840.49 2265.31 3854.5 2325.99 3869.4 2383.16 3897.09 2353.74 3915.48 2317.29 3929.05 2279.55 3946.38 2235.24 3956.67 2188.63 3970.11 2143.1 3980.11 2113.7 4004.84 2082.27 4039.26 2086.04 4087.07 2089.87 4124.5 2124.94 4159.89 2152.75 4175.72 2076.51 4211.25 2005.31 4257.79 1943.42 4330.04 1851.01 4444.55 1785.43 4564.1 1792.88 4690.46 1800.04 4823.32 1870.78 4868.65 1994.48 4897.8 2071.81 4883.56 2162.28 4835.04 2228.81 4796.41 2283.85 4729.8 2324.37 4660.89 2315.09 4601.82 2309.29 4545.39 2272.56 4522.48 2216.9 4501.91 2169.5 4519.82 2109.98 4560.07 2078.98 4585.87 2062.56 4624.66 2054.76 4648.23 2079.16 4655.43 2085.06 4660.09 2098.76 4647.33 2100.72 4619.21 2103.19 4589.93 2120.29 4588.83 2151.4 4584.42 2186.58 4615.17 2215.61 4647.55 2222.15 4671.7 2229.95 4698.7 2227.67 4719.87 2213.11 4793.54 2164.73 4813.37 2052.18 4760.38 1981.53 4714.43 1918.63 4638.77 1880.97 4562.25 1872.31 4479.86 1863.88 4396.88 1895.95 4336.09 1950.91 4267.51 2012.09 4219.66 2095.55 4196.26 2183.89 4286.79 2263.16 4372.81 2348.13 4448.44 2441.83 4460.67 2459.2 4475.97 2476.55 4480.33 2497.75 4482.36 2532.22 4466.6 2564.43 4454.75 2595.82 4423.38 2669.94 4383.37 2741.27 4331.18 2802.78 4260.97 2883.14 4176.04 2949.5 4086.08 3006.31 4015.23 3049.01 3941.93 3087.79 3873.36 3134.23 3750.47 3216.01 3636.43 3310.11 3523.27 3404.63 3421.03 3491.17 3321.38 3581.19 3231.46 3680.64 3174.33 3742.24 3112.85 3800.44 3042.95 3847.46 2945.36 3915.91 2837.72 3968.68 2726.28 4010.44 2721.45 4012.57 2709.77 4016.71 2710.7 4020.1 2736.07 4022.5 2761.26 4014.37 2786.05 4009.58 2889.22 3984.67 2984.82 3935.72 3074.19 3879.61 3147.33 3829.97 3211.94 3769.14 3279.87 3712.78 3452.45 3565.62 3624.4 3417.71 3799.61 3273.68 3928.33 3171.65 4071.28 3090 4206.18 2996.86 4273.4 2948.67 4338.58 2897.18 4398.3 2839.92 4452.6 2783.47 4493.48 2710.76 4501.76 2632.01 4505.37 2598.04 4501.26 2563.51 4496.57 2530.21 4500.5 2520.52 4506.67 2536.78 4508.33 2541.68 4528.16 2588.2 4546.78 2640.65 4530.81 2691.17 4516.82 2743.67 4482.17 2788.32 4470.44 2841.48 4466.73 2879.27 4489.33 2915.99 4478.2 2953.71 4472.34 2974.32 4459.02 2996.59 4437.73 3003.25 4401.33 3011.5 4364.71 2995.07 4337.6 2971.4 4330.62 2967.02 4323.06 2957.89 4315.87 2957.2 4279.96 2992.35 4243.29 3027.6 4209.5 3064.38 4214.12 3097.1 4230.78 3134.12 4210.58 3164.72 4189.28 3195.4 4149.16 3203.67 4114.06 3200.37 4082.52 3199.52 4050.94 3190.49 4022.47 3179.07 3962.25 3228.22 3898.45 3273.1 3834.04 3316.49 3795.01 3379.96 3771.61 3454.43 3775.9 3529.47 3779.29 3597.46 3801.93 3666.27 3846.74 3718.28 3909.31 3784.96 4013.39 3802.07 4097.41 3769.98 4176.02 3746.05 4232.39 3658.1 4212.35 3576.87 4203.8 3539.35 4170.22 3507.35 4130.54 3507.99 4098.14 3507.77 4059.42 3523.93 4050.59 3557.91 4049.04 3570.3 4052.99 3586.19 4059.6 3594.84 4046.56 3566.2 4074.37 3530.05 4105.41 3533.35 4138.55 3530.51 4160.74 3565.98 4157.24 3596.01 4153.62 3643.44 4102.11 3677.16 4056.72 3668.84 4020.15 3664.42 3987.53 3636.1 3981.3 3599.3 3964.97 3533.3 4012.04 3462.76 4074.62 3441.72 4140.77 3416.94 4224.79 3438.62 4262.46 3500.68 4321.84 3595.1 4278.82 3724.12 4195.71 3789.6 4167.38 3813.05 4132.59 3826.13 4097.3 3834.94 3984.94 3866.7 3847.98 3825.54 3788.32 3721.01 3725.77 3609.72 3727.41 3466.34 3790.87 3355.7 3792.56 3351.61 3799.09 3342.61 3797.99 3341.93 3738.9 3386.07 3681.42 3433.78 3634.36 3490.86 3612.2 3518.74 3598.33 3557.27 3612.76 3591.89 3622.01 3618.16 3644.25 3646.44 3629.8 3675 3605.4 3716.49 3550.26 3736.72 3505.07 3718.85 3474.74 3710.05 3449.58 3681.33 3415.79 3687.6 3395.29 3693.18 3379.36 3709.53 3365.74 3725.22 3348.93 3744.98 3345.33 3772.22 3351.12 3796.92 3355.94 3829.37 3363.74 3862.83 3357.23 3895.5 3348.97 3932.19 3308.44 3959.16 3271.7 3946.78 3232.99 3935.73 3213.82 3896.87 3184.01 3873.55 3163.67 3860.75 3140.64 3873.36 3123.4 3885.36 3107.32 3896.08 3088.39 3906.32 3078.82 3923.52 3074.34 3944.13 3097.62 3955.97 3104.19 3973.6 3119.33 4000.8 3131.83 4037.05 3114.22 4065.91 3097.01 4085.57 3066.78 4079.04 3044.96 4071.85 3012.28 4060.12 2993.85 4028.75 2967.29 4008.67 2944.99 3995.7 2914.97 4006.71 2899.49 4025.13 2893.1 4040.53 2906.76 4056.05 2903.6 4072.25 2902.99 4091.22 2902.15 4115.4 2885.11 4127.14 2854.51 4142.67 2819.62 4127.15 2791.57 4112.92 2756.52 4093.14 2722.57 4071.38 2685.27 4056.05 2633.05 4032.98 2573.7 4019.08 2532.34 3977.29 2523.64 3968.7 2518.22 3953.72 2513.91 3945.28 2504.29 3957.09 2491.78 3968.12 2483.93 3980.36 2494.54 4024.16 2505.82 4068.89 2515.91 4112.06 2474.04 4094.07 2431.96 4074.32 2390.22 4057.5 2351.72 4081.17 2312.55 4105.82 2274.39 4128.87 2278.54 4083.47 2284.43 4037.34 2287.44 3992.35 2252.99 3963 2217.47 3933.38 2183.71 3904.21 2228.21 3894.18 2273.81 3885.47 2317.58 3874.56 2334.87 3832.74 2352.03 3789.74 2369.32 3748.68 2392.69 3787.85 2415.12 3828.56 2438.98 3866.79 2465.53 3868.42 2492.93 3871.45 2518.91 3872.28 2536.11 3813.56 2574.59 3763.56 2620.29 3723.93 2699.6 3649.6 2784.77 3581.23 2859.93 3502.59 2875.2 3476.54 2896.6 3454.11 2906.62 3425.11 2932.61 3362.76 2948.19 3296.77 2965.43 3231.62 2864.05 3310.93 2715.22 3331.79 2600.87 3268.24 2476.79 3203.9 2408.46 3042.62 2461.02 2910.72 2498.09 2813.89 2598.62 2742.34 2703.63 2748.86 2787.02 2752.5 2868.38 2807.25 2895.04 2887.72 2922.08 2959.99 2900.42 3051.03 2835.36 3095.81 2777.82 3138.86 2685.56 3137.75 2638.19 3079.77 2605.03 3041.66 2595.13 2977.1 2633.07 2938.65 2658.96 2910.63 2713.88 2930.69 2713.86 2969.44 2719.83 3005.3 2674.01 3033.08 2644.44 3015.64 2665.75 3071.8 2746.15 3089.05 2790.84 3050.37 2839.52 3015.07 2846.99 2939.67 2811.25 2892.63 2777.48 2842.98 2709.64 2822.02 2653.26 2841.91 2582.66 2863.7 2532.38 2936.51 2537.52 3010.4 2540.2 3105.66 2616.63 3192.93 2711.1 3207.22 2815.87 3226.43 2929.6 3173.03 2980.61 3079.33 2989.98 3063.79 3002.79 3049.95 3011.02 3034.08 3033.42 2930.57 3053.77 2826.66 3082.58 2724.7 3094.22 2683.25 3104.49 2641.45 3111.74 2598.99 3114.21 2587.95 3116.81 2572.22 3127.32 2567.46 3143.97 2574.71 3141.75 2596.74 3145.6 2611.75 3145.62 2622.83 3155.67 2635.31 3166.58 2626.58 3220.42 2605.3 3278.97 2601.2 3336.06 2595.75 3428.62 2589.47 3524.06 2591.96 3612.26 2558.6 3686.11 2532.05 3754.24 2488.65 3812.78 2437.5 3755.22 2412.5 3697.52 2386.34 3640.01 2362.05 3562.88 2409.48 3484.42 2458.89 3407.98 2505.11 3416.78 2414.51 3426.71 2323.49 3434.84 2233.24 3365.67 2174.46 3295.31 2115.39 3226.88 2056.73 3315.78 2037.19 3405.53 2018.53 3493.91 1998.36 3528.46 1914.42 3562.89 1829.2 3597.43 1746.01 Z" fill="#1eb6a9" fill-opacity="1" stroke="none"/>
</svg>
